# This file is brought to you by Roblox Corporation
# Generated by Roblox Studio

mtllib Star3.mtl

g Flash1

v -0.000119642 -1.73089 -1.52281e-08 
v -0.943006 -4.93693 -3.0512 
v 0.386908 -0.774078 -1.25247 
v 1.25236 -0.774078 2.66685e-07 
v 2.46834 -4.93693 -1.88576 
v 0.386908 -0.774078 -1.25247 
v 0.386908 -0.774078 1.25247 
v 2.46834 -4.93693 1.88576 
v 1.25236 -0.774078 2.66685e-07 
v 0.386908 -0.774078 1.25247 
v -0.943007 -4.93693 3.0512 
v -0.000119642 -1.73089 -1.52281e-08 
v 0.386908 -0.774078 -1.25247 
v -1.52573 -1.16544 -4.93693 
v -0.387146 0.774078 -1.25247 
v 1.25236 -0.774078 2.66685e-07 
v 3.99393 -1.16544 -3.05122 
v 1.01315 0.774078 -0.774064 
v 1.01315 0.774078 0.774064 
v 3.99393 -1.16544 3.05122 
v 1.25236 -0.774078 2.66685e-07 
v -0.387147 0.774078 1.25247 
v -1.52573 -1.16544 4.93693 
v 0.386908 -0.774078 1.25247 
v 0.386908 -0.774078 -1.25247 
v 1.52549 1.16544 -4.93693 
v 1.01315 0.774078 -0.774064 
v 1.01315 0.774078 0.774064 
v 1.52549 1.16544 4.93693 
v 0.386908 -0.774078 1.25247 
v -0.387146 0.774078 -1.25247 
v -2.46858 4.93693 -1.88576 
v -0.000118816 1.73089 4.64537e-07 
v 1.01315 0.774078 -0.774064 
v 0.942769 4.93693 -3.0512 
v -0.000118816 1.73089 4.64537e-07 
v 1.01315 0.774078 -0.774064 
v 3.05108 4.93693 1.29015e-06 
v 1.01315 0.774078 0.774064 
v -0.000118816 1.73089 4.64537e-07 
v 0.942768 4.93693 3.0512 
v 1.01315 0.774078 0.774064 
v -0.000118816 1.73089 4.64537e-07 
v -2.46858 4.93693 1.88576 
v -0.387147 0.774078 1.25247 
v -0.387146 0.774078 -1.25247 
v -3.99416 1.16544 -3.05122 
v -1.2526 0.774078 1.82624e-07 
v 1.01315 0.774078 -0.774064 
v 1.52549 1.16544 -4.93693 
v -0.387146 0.774078 -1.25247 
v 1.01315 0.774078 0.774064 
v 4.93681 1.16547 9.92266e-07 
v 1.01315 0.774078 -0.774064 
v -0.387147 0.774078 1.25247 
v 1.52549 1.16544 4.93693 
v 1.01315 0.774078 0.774064 
v -1.2526 0.774078 1.82624e-07 
v -3.99417 1.16544 3.05122 
v -0.387147 0.774078 1.25247 
v -1.01339 -0.774078 0.774064 
v -3.05132 -4.93693 -8.05737e-07 
v -0.000119642 -1.73089 -1.52281e-08 
v -0.000119642 -1.73089 -1.52281e-08 
v 2.46834 -4.93693 -1.88576 
v 1.25236 -0.774078 2.66685e-07 
v -1.01339 -0.774078 0.774064 
v -0.943007 -4.93693 3.0512 
v 0.386908 -0.774078 1.25247 
v -1.2526 0.774078 1.82624e-07 
v -4.93705 -1.16547 -5.07852e-07 
v -1.01339 -0.774078 0.774064 
v 0.386908 -0.774078 1.25247 
v 3.99393 -1.16544 3.05122 
v 1.01315 0.774078 0.774064 
v 1.25236 -0.774078 2.66685e-07 
v 4.93681 1.16547 9.92266e-07 
v 1.01315 0.774078 0.774064 
v -0.387147 0.774078 1.25247 
v -3.99417 1.16544 3.05122 
v -1.01339 -0.774078 0.774064 
v -0.000118816 1.73089 4.64537e-07 
v -2.46858 4.93693 -1.88576 
v -1.2526 0.774078 1.82624e-07 
v 1.01315 0.774078 0.774064 
v 3.05108 4.93693 1.29015e-06 
v -0.000118816 1.73089 4.64537e-07 
v 1.01315 0.774078 0.774064 
v 0.942768 4.93693 3.0512 
v -0.387147 0.774078 1.25247 
v -1.01339 -0.774078 -0.774064 
v -0.943006 -4.93693 -3.0512 
v -0.000119642 -1.73089 -1.52281e-08 
v -1.01339 -0.774078 -0.774064 
v -3.05132 -4.93693 -8.05737e-07 
v -1.01339 -0.774078 0.774064 
v 0.386908 -0.774078 -1.25247 
v 2.46834 -4.93693 -1.88576 
v -0.000119642 -1.73089 -1.52281e-08 
v -0.000119642 -1.73089 -1.52281e-08 
v 2.46834 -4.93693 1.88576 
v 0.386908 -0.774078 1.25247 
v -0.000119642 -1.73089 -1.52281e-08 
v -0.943007 -4.93693 3.0512 
v -1.01339 -0.774078 0.774064 
v -0.387146 0.774078 -1.25247 
v -1.52573 -1.16544 -4.93693 
v -1.01339 -0.774078 -0.774064 
v -1.01339 -0.774078 0.774064 
v -1.52573 -1.16544 4.93693 
v -0.387147 0.774078 1.25247 
v -1.2526 0.774078 1.82624e-07 
v -3.99416 1.16544 -3.05122 
v -1.01339 -0.774078 -0.774064 
v -0.387146 0.774078 -1.25247 
v 1.52549 1.16544 -4.93693 
v 0.386908 -0.774078 -1.25247 
v 0.386908 -0.774078 1.25247 
v 1.52549 1.16544 4.93693 
v -0.387147 0.774078 1.25247 
v -1.01339 -0.774078 0.774064 
v -3.99417 1.16544 3.05122 
v -1.2526 0.774078 1.82624e-07 
v -1.2526 0.774078 1.82624e-07 
v -2.46858 4.93693 -1.88576 
v -0.387146 0.774078 -1.25247 
v -0.000118816 1.73089 4.64537e-07 
v 0.942769 4.93693 -3.0512 
v -0.387146 0.774078 -1.25247 
v -0.387147 0.774078 1.25247 
v 0.942768 4.93693 3.0512 
v -0.000118816 1.73089 4.64537e-07 
v -0.387147 0.774078 1.25247 
v -2.46858 4.93693 1.88576 
v -1.2526 0.774078 1.82624e-07 
v -1.01339 -0.774078 0.774064 
v -4.93705 -1.16547 -5.07852e-07 
v -1.01339 -0.774078 -0.774064 
v -1.01339 -0.774078 -0.774064 
v -1.52573 -1.16544 -4.93693 
v 0.386908 -0.774078 -1.25247 
v 0.386908 -0.774078 -1.25247 
v 3.99393 -1.16544 -3.05122 
v 1.25236 -0.774078 2.66685e-07 
v 1.25236 -0.774078 2.66685e-07 
v 3.99393 -1.16544 3.05122 
v 0.386908 -0.774078 1.25247 
v 0.386908 -0.774078 1.25247 
v -1.52573 -1.16544 4.93693 
v -1.01339 -0.774078 0.774064 
v 0.386908 -0.774078 -1.25247 
v -0.943006 -4.93693 -3.0512 
v -1.01339 -0.774078 -0.774064 
v -0.000119642 -1.73089 -1.52281e-08 
v -3.05132 -4.93693 -8.05737e-07 
v -1.01339 -0.774078 -0.774064 
v 1.25236 -0.774078 2.66685e-07 
v 2.46834 -4.93693 1.88576 
v -0.000119642 -1.73089 -1.52281e-08 
v -1.01339 -0.774078 -0.774064 
v -4.93705 -1.16547 -5.07852e-07 
v -1.2526 0.774078 1.82624e-07 
v 1.01315 0.774078 -0.774064 
v 3.99393 -1.16544 -3.05122 
v 0.386908 -0.774078 -1.25247 
v -1.01339 -0.774078 -0.774064 
v -3.99416 1.16544 -3.05122 
v -0.387146 0.774078 -1.25247 
v 1.01315 0.774078 -0.774064 
v 4.93681 1.16547 9.92266e-07 
v 1.25236 -0.774078 2.66685e-07 
v -0.387146 0.774078 -1.25247 
v 0.942769 4.93693 -3.0512 
v 1.01315 0.774078 -0.774064 
v -0.000118816 1.73089 4.64537e-07 
v 3.05108 4.93693 1.29015e-06 
v 1.01315 0.774078 -0.774064 
v -1.2526 0.774078 1.82624e-07 
v -2.46858 4.93693 1.88576 
v -0.000118816 1.73089 4.64537e-07 

vn 0.944882 -0.322835 0.0472441 
vn 0.944882 -0.322835 0.0472441 
vn 0.944882 -0.322835 0.0472441 
vn 0.732283 0.448819 -0.511811 
vn 0.732283 0.448819 -0.511811 
vn 0.732283 0.448819 -0.511811 
vn 0.732283 0.448819 0.511811 
vn 0.732283 0.448819 0.511811 
vn 0.732283 0.448819 0.511811 
vn 0.944882 -0.322835 -0.0472441 
vn 0.944882 -0.322835 -0.0472441 
vn 0.944882 -0.322835 -0.0472441 
vn 0.795276 0.401575 -0.456693 
vn 0.795276 0.401575 -0.456693 
vn 0.795276 0.401575 -0.456693 
vn 0.708661 0.401575 0.582677 
vn 0.708661 0.401575 0.582677 
vn 0.708661 0.401575 0.582677 
vn 0.708661 0.401575 -0.582677 
vn 0.708661 0.401575 -0.582677 
vn 0.708661 0.401575 -0.582677 
vn 0.795276 0.401575 0.456693 
vn 0.795276 0.401575 0.456693 
vn 0.795276 0.401575 0.456693 
vn 0.913386 -0.393701 0.0787402 
vn 0.913386 -0.393701 0.0787402 
vn 0.913386 -0.393701 0.0787402 
vn 0.913386 -0.393701 -0.0787402 
vn 0.913386 -0.393701 -0.0787402 
vn 0.913386 -0.393701 -0.0787402 
vn 0.80315 0.322835 -0.496063 
vn 0.80315 0.322835 -0.496063 
vn 0.80315 0.322835 -0.496063 
vn 0.748031 0.330709 0.574803 
vn 0.748031 0.330709 0.574803 
vn 0.748031 0.330709 0.574803 
vn 0.897638 -0.440945 0 
vn 0.897638 -0.440945 0 
vn 0.897638 -0.440945 0 
vn 0.748031 0.330709 -0.574803 
vn 0.748031 0.330709 -0.574803 
vn 0.748031 0.330709 -0.574803 
vn 0.80315 0.322835 0.496063 
vn 0.80315 0.322835 0.496063 
vn 0.80315 0.322835 0.496063 
vn 0.0787402 0.992126 0.0551181 
vn 0.0787402 0.992126 0.0551181 
vn 0.0787402 0.992126 0.0551181 
vn -0.0314961 0.992126 0.0866142 
vn -0.0314961 0.992126 0.0866142 
vn -0.0314961 0.992126 0.0866142 
vn -0.102362 0.992126 0 
vn -0.102362 0.992126 0 
vn -0.102362 0.992126 0 
vn -0.0314961 0.992126 -0.0866142 
vn -0.0314961 0.992126 -0.0866142 
vn -0.0314961 0.992126 -0.0866142 
vn 0.0787402 0.992126 -0.0551181 
vn 0.0787402 0.992126 -0.0551181 
vn 0.0787402 0.992126 -0.0551181 
vn 0.354331 -0.338583 0.874016 
vn 0.354331 -0.338583 0.874016 
vn 0.354331 -0.338583 0.874016 
vn 0.259843 -0.338583 0.905512 
vn 0.259843 -0.338583 0.905512 
vn 0.259843 -0.338583 0.905512 
vn -0.291339 0.456693 0.84252 
vn -0.291339 0.456693 0.84252 
vn -0.291339 0.456693 0.84252 
vn -0.212598 0.409449 0.889764 
vn -0.212598 0.409449 0.889764 
vn -0.212598 0.409449 0.889764 
vn -0.370079 0.409449 0.834646 
vn -0.370079 0.409449 0.834646 
vn -0.370079 0.409449 0.834646 
vn 0.212598 -0.409449 0.889764 
vn 0.212598 -0.409449 0.889764 
vn 0.212598 -0.409449 0.889764 
vn 0.370079 -0.409449 0.834646 
vn 0.370079 -0.409449 0.834646 
vn 0.370079 -0.409449 0.834646 
vn -0.259843 0.338583 0.905512 
vn -0.259843 0.338583 0.905512 
vn -0.259843 0.338583 0.905512 
vn -0.354331 0.338583 0.874016 
vn -0.354331 0.338583 0.874016 
vn -0.354331 0.338583 0.874016 
vn 0.291339 -0.456693 0.84252 
vn 0.291339 -0.456693 0.84252 
vn 0.291339 -0.456693 0.84252 
vn -0.748031 -0.330709 0.574803 
vn -0.748031 -0.330709 0.574803 
vn -0.748031 -0.330709 0.574803 
vn -0.897638 0.440945 0 
vn -0.897638 0.440945 0 
vn -0.897638 0.440945 0 
vn -0.80315 -0.322835 -0.496063 
vn -0.80315 -0.322835 -0.496063 
vn -0.80315 -0.322835 -0.496063 
vn -0.80315 -0.322835 0.496063 
vn -0.80315 -0.322835 0.496063 
vn -0.80315 -0.322835 0.496063 
vn -0.748031 -0.330709 -0.574803 
vn -0.748031 -0.330709 -0.574803 
vn -0.748031 -0.330709 -0.574803 
vn -0.913386 0.393701 0.0787402 
vn -0.913386 0.393701 0.0787402 
vn -0.913386 0.393701 0.0787402 
vn -0.913386 0.393701 -0.0787402 
vn -0.913386 0.393701 -0.0787402 
vn -0.913386 0.393701 -0.0787402 
vn -0.708661 -0.401575 0.582677 
vn -0.708661 -0.401575 0.582677 
vn -0.708661 -0.401575 0.582677 
vn -0.795276 -0.401575 -0.456693 
vn -0.795276 -0.401575 -0.456693 
vn -0.795276 -0.401575 -0.456693 
vn -0.795276 -0.401575 0.456693 
vn -0.795276 -0.401575 0.456693 
vn -0.795276 -0.401575 0.456693 
vn -0.708661 -0.401575 -0.582677 
vn -0.708661 -0.401575 -0.582677 
vn -0.708661 -0.401575 -0.582677 
vn -0.732283 -0.448819 -0.511811 
vn -0.732283 -0.448819 -0.511811 
vn -0.732283 -0.448819 -0.511811 
vn -0.944882 0.322835 0.0472441 
vn -0.944882 0.322835 0.0472441 
vn -0.944882 0.322835 0.0472441 
vn -0.944882 0.322835 -0.0472441 
vn -0.944882 0.322835 -0.0472441 
vn -0.944882 0.322835 -0.0472441 
vn -0.732283 -0.448819 0.511811 
vn -0.732283 -0.448819 0.511811 
vn -0.732283 -0.448819 0.511811 
vn 0.102362 -0.992126 0 
vn 0.102362 -0.992126 0 
vn 0.102362 -0.992126 0 
vn 0.0314961 -0.992126 0.0866142 
vn 0.0314961 -0.992126 0.0866142 
vn 0.0314961 -0.992126 0.0866142 
vn -0.0787402 -0.992126 0.0551181 
vn -0.0787402 -0.992126 0.0551181 
vn -0.0787402 -0.992126 0.0551181 
vn -0.0787402 -0.992126 -0.0551181 
vn -0.0787402 -0.992126 -0.0551181 
vn -0.0787402 -0.992126 -0.0551181 
vn 0.0314961 -0.992126 -0.0866142 
vn 0.0314961 -0.992126 -0.0866142 
vn 0.0314961 -0.992126 -0.0866142 
vn -0.291339 0.456693 -0.84252 
vn -0.291339 0.456693 -0.84252 
vn -0.291339 0.456693 -0.84252 
vn 0.354331 -0.338583 -0.874016 
vn 0.354331 -0.338583 -0.874016 
vn 0.354331 -0.338583 -0.874016 
vn 0.259843 -0.338583 -0.905512 
vn 0.259843 -0.338583 -0.905512 
vn 0.259843 -0.338583 -0.905512 
vn -0.212598 0.409449 -0.889764 
vn -0.212598 0.409449 -0.889764 
vn -0.212598 0.409449 -0.889764 
vn -0.370079 0.409449 -0.834646 
vn -0.370079 0.409449 -0.834646 
vn -0.370079 0.409449 -0.834646 
vn 0.370079 -0.409449 -0.834646 
vn 0.370079 -0.409449 -0.834646 
vn 0.370079 -0.409449 -0.834646 
vn 0.212598 -0.409449 -0.889764 
vn 0.212598 -0.409449 -0.889764 
vn 0.212598 -0.409449 -0.889764 
vn 0.291339 -0.456693 -0.84252 
vn 0.291339 -0.456693 -0.84252 
vn 0.291339 -0.456693 -0.84252 
vn -0.354331 0.338583 -0.874016 
vn -0.354331 0.338583 -0.874016 
vn -0.354331 0.338583 -0.874016 
vn -0.259843 0.338583 -0.905512 
vn -0.259843 0.338583 -0.905512 
vn -0.259843 0.338583 -0.905512 

vt 9.69583 -3.04717 
vt 10.0772 -3.44793 
vt 9.85239 -2.92757 
vt 9.69583 -2.92757 
vt 9.93155 -3.44793 
vt 9.85239 -2.92757 
vt 9.53927 -2.92757 
vt 9.46011 -3.44793 
vt 9.69583 -2.92757 
vt 9.53927 -2.92757 
vt 9.31443 -3.44793 
vt 9.69583 -3.04717 
vt 9.85239 -2.92757 
vt 10.3129 -2.97649 
vt 9.85239 -2.73405 
vt 9.69583 -2.92757 
vt 10.0772 -2.97649 
vt 9.79259 -2.73405 
vt 9.59907 -2.73405 
vt 9.31443 -2.97649 
vt 9.69583 -2.92757 
vt 9.53927 -2.73405 
vt 9.07872 -2.97649 
vt 9.53927 -2.92757 
vt 9.85239 -2.92757 
vt 10.3129 -2.68513 
vt 9.79259 -2.73405 
vt 9.59907 -2.73405 
vt 9.07872 -2.68513 
vt 9.53927 -2.92757 
vt 9.85239 -2.73405 
vt 9.93155 -2.2137 
vt 9.69583 -2.61445 
vt 9.79259 -2.73405 
vt 10.0772 -2.2137 
vt 9.69583 -2.61445 
vt 9.79259 -2.73405 
vt 9.69583 -2.2137 
vt 9.59907 -2.73405 
vt 9.69583 -2.61445 
vt 9.31443 -2.2137 
vt 9.59907 -2.73405 
vt 9.69583 -2.61445 
vt 9.46011 -2.2137 
vt 9.53927 -2.73405 
vt 9.74421 -2.98737 
vt 10.1951 -3.21221 
vt 9.85239 -2.83081 
vt 9.56917 -2.92757 
vt 9.50513 -3.44793 
vt 9.74421 -2.98737 
vt 9.56917 -2.73405 
vt 9.07872 -2.83081 
vt 9.56917 -2.92757 
vt 9.74421 -2.67425 
vt 9.50513 -2.2137 
vt 9.56917 -2.73405 
vt 9.85239 -2.83081 
vt 10.1951 -2.44941 
vt 9.74421 -2.67425 
vt 9.56917 -2.92757 
vt 9.31443 -3.44793 
vt 9.69583 -3.04717 
vt 9.69583 -3.04717 
vt 10.0044 -3.44793 
vt 9.85239 -2.92757 
vt 9.56917 -2.92757 
vt 9.57797 -3.44793 
vt 9.74421 -2.92757 
vt 9.53927 -2.73405 
vt 9.07872 -2.9765 
vt 9.56917 -2.92757 
vt 9.74421 -2.92757 
vt 10.1951 -2.97649 
vt 9.82249 -2.73405 
vt 9.85239 -2.92757 
vt 10.3129 -2.68513 
vt 9.82249 -2.73405 
vt 9.64745 -2.73405 
vt 9.19658 -2.68513 
vt 9.56917 -2.92757 
vt 9.69583 -2.61445 
vt 9.38727 -2.2137 
vt 9.53927 -2.73405 
vt 9.82249 -2.73405 
vt 10.0772 -2.2137 
vt 9.69583 -2.61445 
vt 9.82249 -2.73405 
vt 9.81369 -2.2137 
vt 9.64745 -2.73405 
vt 9.59907 -2.92757 
vt 9.31443 -3.44793 
vt 9.69583 -3.04717 
vt 9.59907 -2.92757 
vt 9.69583 -3.44793 
vt 9.79259 -2.92757 
vt 9.53927 -2.92757 
vt 9.46011 -3.44793 
vt 9.69583 -3.04717 
vt 9.69583 -3.04717 
vt 9.93155 -3.44793 
vt 9.85239 -2.92757 
vt 9.69583 -3.04717 
vt 10.0772 -3.44793 
vt 9.79259 -2.92757 
vt 9.53927 -2.73405 
vt 9.07872 -2.97649 
vt 9.59907 -2.92757 
vt 9.79259 -2.92757 
vt 10.3129 -2.97649 
vt 9.85239 -2.73405 
vt 9.69583 -2.73405 
vt 9.31443 -2.68513 
vt 9.59907 -2.92757 
vt 9.53927 -2.73405 
vt 9.07872 -2.68513 
vt 9.53927 -2.92757 
vt 9.85239 -2.92757 
vt 10.3129 -2.68513 
vt 9.85239 -2.73405 
vt 9.79259 -2.92757 
vt 10.0772 -2.68513 
vt 9.69583 -2.73405 
vt 9.69583 -2.73405 
vt 9.46011 -2.2137 
vt 9.53927 -2.73405 
vt 9.69583 -2.61445 
vt 9.31443 -2.2137 
vt 9.53927 -2.73405 
vt 9.85239 -2.73405 
vt 10.0772 -2.2137 
vt 9.69583 -2.61445 
vt 9.85239 -2.73405 
vt 9.93155 -2.2137 
vt 9.69583 -2.73405 
vt 9.56917 -2.73405 
vt 9.07872 -2.83081 
vt 9.56917 -2.92757 
vt 9.56917 -2.92757 
vt 9.50513 -3.44793 
vt 9.74421 -2.98737 
vt 9.74421 -2.98737 
vt 10.1951 -3.21221 
vt 9.85239 -2.83081 
vt 9.85239 -2.83081 
vt 10.1951 -2.44941 
vt 9.74421 -2.67425 
vt 9.74421 -2.67425 
vt 9.50513 -2.2137 
vt 9.56917 -2.73405 
vt 9.64745 -2.92757 
vt 9.81369 -3.44793 
vt 9.82249 -2.92757 
vt 9.69583 -3.04717 
vt 10.0772 -3.44793 
vt 9.82249 -2.92757 
vt 9.53927 -2.92757 
vt 9.38727 -3.44793 
vt 9.69583 -3.04717 
vt 9.82249 -2.92757 
vt 10.3129 -2.9765 
vt 9.85239 -2.73405 
vt 9.56917 -2.73405 
vt 9.19658 -2.97649 
vt 9.64745 -2.92757 
vt 9.82249 -2.92757 
vt 10.1951 -2.68513 
vt 9.74421 -2.73405 
vt 9.56917 -2.73405 
vt 9.07872 -2.68513 
vt 9.53927 -2.92757 
vt 9.74421 -2.73405 
vt 9.57797 -2.2137 
vt 9.56917 -2.73405 
vt 9.69583 -2.61445 
vt 9.31443 -2.2137 
vt 9.56917 -2.73405 
vt 9.85239 -2.73405 
vt 10.0044 -2.2137 
vt 9.69583 -2.61445 

usemtl Flash1Mtl

f 1/1/1 2/2/2 3/3/3 
f 4/4/4 5/5/5 6/6/6 
f 7/7/7 8/8/8 9/9/9 
f 10/10/10 11/11/11 12/12/12 
f 13/13/13 14/14/14 15/15/15 
f 16/16/16 17/17/17 18/18/18 
f 19/19/19 20/20/20 21/21/21 
f 22/22/22 23/23/23 24/24/24 
f 25/25/25 26/26/26 27/27/27 
f 28/28/28 29/29/29 30/30/30 
f 31/31/31 32/32/32 33/33/33 
f 34/34/34 35/35/35 36/36/36 
f 37/37/37 38/38/38 39/39/39 
f 40/40/40 41/41/41 42/42/42 
f 43/43/43 44/44/44 45/45/45 
f 46/46/46 47/47/47 48/48/48 
f 49/49/49 50/50/50 51/51/51 
f 52/52/52 53/53/53 54/54/54 
f 55/55/55 56/56/56 57/57/57 
f 58/58/58 59/59/59 60/60/60 
f 61/61/61 62/62/62 63/63/63 
f 64/64/64 65/65/65 66/66/66 
f 67/67/67 68/68/68 69/69/69 
f 70/70/70 71/71/71 72/72/72 
f 73/73/73 74/74/74 75/75/75 
f 76/76/76 77/77/77 78/78/78 
f 79/79/79 80/80/80 81/81/81 
f 82/82/82 83/83/83 84/84/84 
f 85/85/85 86/86/86 87/87/87 
f 88/88/88 89/89/89 90/90/90 
f 91/91/91 92/92/92 93/93/93 
f 94/94/94 95/95/95 96/96/96 
f 97/97/97 98/98/98 99/99/99 
f 100/100/100 101/101/101 102/102/102 
f 103/103/103 104/104/104 105/105/105 
f 106/106/106 107/107/107 108/108/108 
f 109/109/109 110/110/110 111/111/111 
f 112/112/112 113/113/113 114/114/114 
f 115/115/115 116/116/116 117/117/117 
f 118/118/118 119/119/119 120/120/120 
f 121/121/121 122/122/122 123/123/123 
f 124/124/124 125/125/125 126/126/126 
f 127/127/127 128/128/128 129/129/129 
f 130/130/130 131/131/131 132/132/132 
f 133/133/133 134/134/134 135/135/135 
f 136/136/136 137/137/137 138/138/138 
f 139/139/139 140/140/140 141/141/141 
f 142/142/142 143/143/143 144/144/144 
f 145/145/145 146/146/146 147/147/147 
f 148/148/148 149/149/149 150/150/150 
f 151/151/151 152/152/152 153/153/153 
f 154/154/154 155/155/155 156/156/156 
f 157/157/157 158/158/158 159/159/159 
f 160/160/160 161/161/161 162/162/162 
f 163/163/163 164/164/164 165/165/165 
f 166/166/166 167/167/167 168/168/168 
f 169/169/169 170/170/170 171/171/171 
f 172/172/172 173/173/173 174/174/174 
f 175/175/175 176/176/176 177/177/177 
f 178/178/178 179/179/179 180/180/180 

